<?xml version="1.0" encoding="UTF-8" ?>
<!DOCTYPE svg PUBLIC "-//W3C//DTD SVG 1.1//EN" "http://www.w3.org/Graphics/SVG/1.1/DTD/svg11.dtd">
<svg width="1024pt" height="1024pt" viewBox="0 0 1024 1024" version="1.1" xmlns="http://www.w3.org/2000/svg">
<g id="#fefefeff">
<path fill="#fefefe" opacity="1.00" d=" M 677.07 212.11 C 688.10 208.69 699.36 205.99 710.30 202.29 C 710.87 204.43 711.46 206.57 712.23 208.66 C 712.75 210.43 713.33 212.20 713.84 213.98 C 714.82 217.15 715.74 220.34 716.76 223.49 C 719.69 234.71 723.72 245.60 726.37 256.89 C 728.27 262.48 729.75 268.20 731.61 273.80 L 731.71 274.18 C 735.68 291.68 741.28 308.79 745.77 326.17 C 747.83 334.49 750.45 342.68 752.27 351.07 C 739.12 344.12 725.33 338.50 712.01 331.90 C 705.70 328.70 699.11 326.11 692.85 322.83 C 685.75 332.31 677.72 341.04 669.17 349.21 C 653.40 364.68 636.04 378.52 617.52 390.57 C 603.04 400.43 587.89 409.27 572.35 417.37 C 540.35 434.05 507.54 449.10 475.27 465.22 C 442.70 481.43 410.48 499.08 382.52 522.57 C 369.95 532.90 358.53 544.51 347.27 556.24 C 327.21 579.21 309.59 604.30 294.79 630.97 C 293.17 634.11 291.72 637.35 289.68 640.25 C 291.86 617.45 295.48 594.71 302.23 572.78 C 306.05 558.55 311.56 544.86 316.89 531.15 L 317.16 530.48 C 317.32 530.16 317.65 529.51 317.81 529.19 C 320.57 523.89 323.34 518.59 325.82 513.14 C 326.22 512.61 327.01 511.55 327.41 511.02 C 328.79 510.37 329.54 508.95 329.38 507.45 C 329.60 506.86 330.05 505.68 330.27 505.09 C 331.19 504.36 331.81 503.34 332.06 502.21 C 332.31 501.68 332.81 500.62 333.06 500.08 C 334.59 497.84 335.98 495.50 337.31 493.14 C 337.53 492.87 337.97 492.33 338.18 492.07 C 339.13 491.38 339.83 490.42 340.13 489.29 C 340.41 488.97 340.97 488.34 341.24 488.02 C 341.51 487.58 342.05 486.71 342.31 486.27 C 342.46 485.94 342.77 485.27 342.92 484.94 C 343.22 484.50 343.83 483.64 344.14 483.20 C 344.33 482.88 344.71 482.22 344.90 481.89 C 345.23 481.47 345.87 480.64 346.19 480.22 C 346.42 479.90 346.87 479.27 347.09 478.96 C 348.13 478.40 348.84 477.45 349.17 476.34 C 349.41 476.00 349.90 475.31 350.14 474.97 C 351.13 474.36 351.85 473.42 352.20 472.31 C 352.63 471.39 353.22 470.57 353.97 469.87 C 355.37 468.33 356.65 466.71 357.94 465.08 C 358.54 464.33 359.22 463.66 359.98 463.06 C 362.65 461.26 364.71 458.76 366.21 455.93 C 366.71 455.19 367.27 454.52 367.91 453.90 C 370.08 451.77 372.12 449.51 374.04 447.15 C 374.32 446.88 374.88 446.35 375.17 446.08 C 377.60 444.30 379.90 442.33 381.89 440.07 C 382.53 439.28 383.27 438.62 384.11 438.07 C 385.08 437.74 385.77 437.10 386.18 436.17 C 386.65 435.20 387.39 434.53 388.40 434.15 C 389.49 433.74 390.30 432.90 390.89 431.93 C 391.26 431.75 392.00 431.41 392.37 431.24 C 393.52 431.18 394.16 430.58 394.29 429.44 C 394.57 429.12 395.14 428.48 395.42 428.16 C 396.94 427.65 398.08 426.52 398.91 425.18 C 399.50 424.18 400.32 423.46 401.37 423.02 C 401.86 422.80 402.84 422.36 403.33 422.14 C 403.47 421.84 403.75 421.24 403.90 420.93 C 404.27 420.69 405.02 420.21 405.39 419.97 C 406.77 419.39 408.17 418.65 408.92 417.27 C 409.19 416.87 409.74 416.08 410.01 415.68 L 410.84 415.66 C 411.90 415.66 412.61 415.11 412.95 414.02 C 413.29 413.80 413.97 413.37 414.31 413.16 C 415.42 412.82 416.36 412.11 416.98 411.13 C 417.69 410.28 418.58 409.68 419.65 409.31 C 424.69 407.09 428.84 403.41 433.43 400.45 C 439.28 396.27 445.67 392.79 451.01 387.95 L 451.53 387.46 L 452.00 387.25 C 454.77 386.11 457.28 384.48 459.72 382.75 C 463.22 380.25 467.24 378.35 470.05 374.99 L 470.66 374.34 L 471.56 374.33 C 473.54 374.63 475.37 373.40 475.93 371.49 L 476.45 370.38 L 477.29 370.19 C 478.49 370.09 479.32 369.13 479.96 368.21 C 480.74 367.10 482.03 366.37 483.39 366.29 C 484.56 366.26 486.02 365.76 486.10 364.38 L 486.36 363.29 L 487.25 363.08 C 488.46 362.95 489.34 362.03 489.96 361.06 C 490.29 360.84 490.95 360.41 491.27 360.19 C 491.68 359.86 492.50 359.21 492.91 358.89 C 493.15 358.75 493.63 358.48 493.87 358.35 C 496.76 357.33 499.31 355.57 501.05 353.02 L 501.58 352.37 L 502.35 352.20 C 503.58 352.13 504.36 351.07 504.96 350.11 C 505.28 349.87 505.93 349.40 506.25 349.16 C 506.68 348.85 507.54 348.23 507.97 347.92 C 508.66 347.21 509.40 346.56 510.21 345.98 C 512.88 344.14 515.42 342.12 517.91 340.04 C 518.28 339.80 519.04 339.32 519.41 339.08 C 520.82 338.45 522.02 337.48 522.90 336.22 C 523.28 335.93 524.05 335.35 524.43 335.06 C 525.92 334.52 527.15 333.50 527.96 332.13 C 528.44 331.33 529.09 330.72 529.92 330.31 C 532.43 329.16 534.78 327.56 536.17 325.11 L 536.62 324.46 L 537.45 324.10 C 539.02 323.54 540.37 322.43 541.11 320.92 L 541.55 320.19 L 542.40 320.21 C 543.64 320.30 544.25 319.72 544.25 318.47 L 544.31 317.59 L 545.13 317.01 C 547.63 315.33 549.80 313.22 551.82 311.00 C 552.48 310.03 553.36 309.46 554.45 309.27 C 555.69 309.23 556.30 308.63 556.28 307.47 L 556.29 306.59 L 556.96 306.22 C 560.03 304.88 562.43 302.47 563.93 299.50 L 564.23 299.23 C 567.09 296.80 569.56 293.96 571.97 291.08 C 572.36 290.87 573.13 290.45 573.52 290.24 C 574.73 290.13 575.32 289.50 575.29 288.37 L 575.28 287.45 L 575.94 286.88 C 578.35 285.01 580.28 282.62 581.98 280.10 C 582.58 279.17 583.35 278.42 584.29 277.83 C 584.78 277.48 585.75 276.79 586.23 276.45 C 578.33 272.18 569.46 270.29 561.19 266.92 C 550.65 263.14 539.90 259.96 529.38 256.15 C 535.09 253.46 541.51 252.85 547.17 250.07 L 547.75 249.80 C 555.70 248.78 563.32 246.13 571.07 244.15 C 577.38 242.07 584.04 240.94 590.07 238.05 L 590.62 237.79 C 596.73 237.29 602.38 234.69 608.31 233.32 C 621.33 229.91 634.06 225.53 647.03 221.95 C 652.03 220.34 657.42 219.59 661.90 216.68 L 662.24 216.61 C 662.41 216.56 662.76 216.48 662.93 216.44 C 667.69 215.15 672.37 213.61 677.07 212.11 Z" />
<path fill="#fefefe" opacity="1.00" d=" M 699.87 351.98 C 701.34 350.49 702.74 348.93 704.14 347.37 C 704.30 348.68 704.46 350.00 704.64 351.32 C 705.13 351.55 706.12 352.01 706.61 352.24 C 707.42 353.51 708.25 354.78 709.07 356.07 C 709.28 356.41 709.70 357.09 709.91 357.43 C 710.55 359.18 711.27 360.91 711.76 362.72 C 712.57 367.23 714.21 371.56 716.77 375.37 L 717.18 376.09 C 720.88 387.11 724.32 398.25 726.61 409.66 C 729.12 416.52 729.91 423.81 731.40 430.93 C 733.26 437.96 733.78 445.25 734.79 452.43 C 735.92 461.77 736.99 471.12 737.65 480.50 C 696.61 489.05 656.56 501.98 617.69 517.60 C 571.65 536.38 528.03 561.76 490.62 594.67 C 485.08 599.38 479.98 604.62 474.07 608.89 C 453.46 595.52 433.55 581.00 412.30 568.64 C 406.53 586.69 397.13 603.28 387.16 619.30 C 377.86 635.03 367.36 650.00 357.04 665.07 C 346.48 679.88 336.22 694.89 325.65 709.69 C 319.64 718.40 313.34 726.93 307.74 735.92 C 301.10 746.13 293.52 755.71 287.06 766.04 C 280.90 776.15 274.39 786.04 267.99 796.01 C 267.96 794.63 267.94 793.26 267.95 791.90 L 268.15 791.31 C 270.90 784.71 271.65 777.53 273.72 770.72 C 280.16 746.18 284.98 721.17 293.22 697.12 C 294.17 694.44 294.73 691.65 295.19 688.86 C 295.28 688.57 295.45 687.97 295.54 687.68 C 298.88 681.73 301.61 675.26 302.84 668.53 L 303.09 668.19 C 304.88 666.14 305.71 663.54 306.26 660.93 C 306.50 660.39 306.97 659.31 307.20 658.77 C 308.64 655.93 309.79 652.96 310.96 650.00 C 311.16 649.53 311.56 648.60 311.76 648.13 C 314.81 642.09 318.15 636.19 320.87 629.99 C 321.22 629.46 321.92 628.41 322.26 627.89 C 323.55 626.62 324.65 625.13 325.00 623.33 C 325.12 622.92 325.37 622.09 325.49 621.68 L 326.03 621.11 C 329.65 617.32 332.20 612.65 334.29 607.89 C 335.03 606.41 335.82 604.91 337.09 603.82 C 338.52 602.65 339.62 601.15 340.13 599.36 C 340.36 599.02 340.83 598.32 341.07 597.98 C 342.06 597.36 342.81 596.44 343.13 595.32 C 343.35 594.97 343.78 594.28 344.00 593.94 C 345.09 593.57 345.62 592.86 345.61 591.80 L 345.62 590.81 C 346.06 590.63 346.96 590.25 347.40 590.07 C 349.03 589.64 350.40 588.29 350.24 586.51 L 350.31 585.60 L 351.00 585.06 C 352.92 583.82 354.27 581.97 355.26 579.94 C 355.49 579.68 355.94 579.18 356.16 578.93 C 357.51 578.07 358.63 576.91 359.11 575.36 C 359.33 575.00 359.77 574.29 359.99 573.93 C 363.62 570.66 366.83 566.97 369.87 563.15 C 370.26 562.93 371.06 562.51 371.45 562.30 C 372.70 562.24 373.31 561.63 373.28 560.48 L 373.27 559.27 L 374.46 559.27 C 375.70 559.34 376.30 558.74 376.27 557.50 L 376.31 556.65 L 377.04 556.23 C 380.80 554.41 383.49 551.14 385.98 547.90 C 386.54 546.96 387.35 546.40 388.40 546.24 C 389.56 546.15 390.19 545.54 390.28 544.39 C 390.48 544.03 390.88 543.29 391.08 542.92 C 393.13 541.50 395.15 540.01 396.83 538.16 L 397.52 537.43 L 398.49 537.30 C 400.22 537.33 401.64 536.05 401.97 534.38 L 402.36 533.26 L 403.47 533.21 C 405.20 533.41 406.66 532.12 406.98 530.47 L 407.36 529.38 L 408.29 529.16 C 409.52 529.05 410.28 527.99 410.94 527.07 C 411.18 526.88 411.67 526.50 411.91 526.30 C 415.77 524.63 419.36 522.24 422.05 518.95 L 422.60 518.34 L 423.49 518.39 C 424.96 518.69 426.54 517.86 426.92 516.37 L 427.32 515.44 L 427.91 515.19 C 431.42 513.87 434.68 511.87 437.15 509.02 L 437.62 508.53 C 438.06 508.40 438.95 508.13 439.40 507.99 C 441.23 507.63 442.78 506.56 443.94 505.11 C 444.56 504.87 445.82 504.40 446.44 504.17 C 448.32 504.13 450.35 503.40 450.91 501.41 L 451.33 500.53 C 451.69 500.43 452.39 500.22 452.75 500.11 C 456.92 498.97 460.97 497.07 464.13 494.07 L 464.70 493.56 C 465.01 493.44 465.64 493.20 465.96 493.08 C 468.05 492.31 470.08 491.35 471.94 490.10 L 472.70 489.60 C 473.10 489.52 473.90 489.35 474.30 489.26 C 476.55 488.88 478.59 487.78 480.15 486.12 L 480.76 485.55 C 481.05 485.48 481.63 485.35 481.92 485.28 C 487.64 483.76 493.44 481.66 498.19 478.06 L 498.79 477.59 L 499.67 477.41 C 502.23 476.98 504.70 476.16 507.05 475.06 C 511.70 472.91 516.65 471.37 520.97 468.54 C 522.93 467.55 525.00 466.78 527.06 466.00 C 530.42 464.79 533.83 463.67 536.96 461.92 L 537.87 461.42 C 538.22 461.39 538.92 461.34 539.27 461.31 C 540.30 461.29 541.16 460.88 541.84 460.06 C 542.39 459.86 543.47 459.44 544.01 459.23 C 546.89 458.84 549.74 457.96 551.96 456.00 L 552.86 455.32 C 553.27 455.34 554.08 455.38 554.49 455.39 C 556.20 455.65 558.21 455.20 559.00 453.49 L 559.62 452.54 C 559.98 452.48 560.69 452.35 561.05 452.29 C 563.72 452.03 566.24 450.99 568.20 449.12 L 568.56 448.84 C 570.94 448.41 573.39 447.81 575.16 446.04 L 575.83 445.50 C 576.10 445.44 576.64 445.30 576.91 445.24 C 580.21 444.57 583.59 443.56 585.94 441.01 L 586.37 440.62 C 589.07 439.56 591.57 438.02 594.36 437.19 C 600.61 435.01 606.82 432.19 612.03 428.04 C 612.60 427.85 613.74 427.46 614.31 427.27 C 615.48 427.34 616.99 426.82 617.06 425.43 L 617.25 424.59 C 617.59 424.49 618.29 424.28 618.63 424.17 C 622.00 423.45 624.83 421.45 627.26 419.08 C 627.81 418.85 628.91 418.41 629.47 418.19 C 631.35 418.14 633.50 417.49 633.93 415.39 L 634.28 414.54 L 635.06 414.28 C 638.04 413.56 640.51 411.67 642.46 409.35 L 642.64 409.16 L 643.39 409.21 C 644.58 409.51 645.89 408.67 646.04 407.42 L 646.40 406.16 L 647.32 406.33 C 647.74 406.07 648.57 405.56 648.98 405.30 L 649.24 404.34 L 650.28 404.12 C 651.49 404.05 652.30 403.04 652.93 402.11 C 653.26 401.83 653.93 401.27 654.26 400.99 C 654.76 400.79 655.76 400.38 656.26 400.18 C 656.41 399.89 656.71 399.30 656.86 399.00 C 657.24 398.80 658.01 398.39 658.39 398.19 C 659.64 398.17 660.27 397.58 660.29 396.40 L 660.32 395.61 L 661.10 395.21 C 663.64 394.13 665.78 392.33 667.24 389.98 C 667.47 389.74 667.91 389.26 668.13 389.02 C 672.69 385.68 676.60 381.55 680.08 377.10 C 681.33 375.64 682.70 374.29 684.02 372.88 C 685.47 371.38 686.73 369.72 687.99 368.06 C 688.23 367.82 688.70 367.34 688.94 367.10 C 693.07 363.38 696.73 358.86 698.63 353.59 L 698.83 353.04 C 699.09 352.78 699.61 352.25 699.87 351.98 Z" />
<path fill="#fefefe" opacity="1.00" d=" M 713.63 521.22 C 720.20 520.87 726.60 519.28 733.08 518.22 C 727.42 538.60 720.82 558.69 713.69 578.60 C 684.75 582.66 656.12 589.74 629.13 601.05 C 611.61 608.48 594.26 617.21 580.16 630.21 C 574.62 635.50 570.85 642.26 567.78 649.20 C 571.48 647.74 575.22 646.33 578.73 644.44 C 590.36 639.74 602.74 637.49 614.84 634.42 C 634.43 630.55 654.20 627.73 673.96 624.92 C 683.26 624.49 692.46 622.33 701.80 622.85 C 699.64 623.91 697.72 625.38 696.58 627.54 C 690.79 637.25 683.62 646.03 677.46 655.49 C 674.05 660.72 669.84 665.38 666.65 670.75 C 661.52 671.93 656.23 671.87 651.05 672.60 C 632.56 675.10 614.10 678.15 596.09 683.08 C 587.39 685.61 578.68 688.36 570.62 692.55 C 566.36 694.65 564.06 698.97 561.87 702.95 C 553.80 717.45 542.96 730.72 528.97 739.87 C 506.16 753.94 479.27 759.13 453.00 762.21 C 451.27 762.29 449.36 762.92 447.74 762.09 C 450.01 758.69 453.40 756.12 456.01 752.95 C 457.40 751.41 458.64 749.76 459.94 748.15 C 460.58 747.40 461.25 746.68 461.97 746.01 C 465.88 742.29 469.38 737.96 471.39 732.90 C 471.54 732.64 471.85 732.12 472.00 731.86 C 473.26 730.01 474.57 728.19 475.63 726.22 C 476.00 725.66 476.74 724.55 477.11 724.00 C 478.01 723.30 478.97 722.47 479.09 721.27 C 479.19 720.82 479.40 719.92 479.50 719.47 L 480.55 718.99 C 482.53 718.44 483.42 716.43 483.29 714.51 C 483.31 714.09 483.37 713.23 483.40 712.81 L 484.10 711.89 C 486.19 709.22 487.54 706.08 488.90 702.99 C 489.16 702.48 489.69 701.46 489.95 700.95 C 491.80 697.77 493.73 694.62 494.95 691.14 C 495.12 690.71 495.46 689.85 495.63 689.43 L 496.46 688.98 C 497.93 688.47 498.54 686.87 498.38 685.43 C 498.39 685.03 498.41 684.23 498.41 683.83 L 499.07 682.84 C 499.42 682.29 500.12 681.20 500.46 680.65 C 500.50 680.59 500.58 680.46 500.62 680.40 L 500.78 680.14 C 504.92 674.03 507.15 666.92 510.52 660.41 C 523.20 635.21 536.50 609.77 555.99 589.06 C 559.69 585.02 564.55 582.22 568.06 577.98 L 568.56 577.40 L 568.91 577.24 C 572.41 575.86 575.71 573.87 578.18 570.99 L 578.69 570.45 C 579.08 570.35 579.88 570.14 580.27 570.04 C 581.45 569.89 582.30 569.02 583.05 568.18 C 583.63 567.89 584.79 567.32 585.37 567.03 C 587.12 566.57 588.63 565.57 589.87 564.27 C 590.52 564.03 591.80 563.54 592.44 563.30 C 593.87 563.38 595.59 562.95 596.03 561.38 L 596.56 560.25 C 597.03 560.26 597.97 560.28 598.44 560.29 C 599.85 560.51 601.56 559.94 601.92 558.40 L 602.27 557.56 L 603.09 557.39 C 605.73 557.03 608.31 556.10 610.12 554.07 L 610.75 553.48 C 611.17 553.41 612.01 553.26 612.42 553.18 C 614.07 552.98 615.57 552.22 616.82 551.15 C 617.46 550.91 618.72 550.43 619.35 550.19 C 621.03 550.00 622.56 549.22 623.83 548.12 C 624.44 547.91 625.67 547.48 626.28 547.27 C 627.31 547.25 628.18 546.84 628.87 546.05 C 629.39 545.83 630.43 545.40 630.95 545.18 C 635.67 544.39 640.12 542.56 644.29 540.26 C 647.06 538.94 650.01 538.00 652.98 537.17 C 653.95 536.77 654.92 536.38 655.91 536.01 C 656.92 535.68 657.93 535.37 658.95 535.08 C 661.27 534.31 663.62 533.68 665.97 533.00 C 673.21 531.20 680.24 528.40 687.71 527.59 C 688.70 527.15 689.74 526.76 690.77 526.34 C 698.28 524.28 705.96 522.64 713.63 521.22 Z" />
<path fill="#fefefe" opacity="1.00" d=" M 505.33 620.42 C 505.55 620.09 505.98 619.42 506.20 619.09 L 506.99 619.49 L 506.85 620.25 C 506.47 620.29 505.71 620.38 505.33 620.42 Z" />
<path fill="#fefefe" opacity="1.00" d=" M 502.16 622.08 C 502.60 621.84 503.50 621.35 503.94 621.11 C 502.56 623.28 500.31 624.47 497.91 625.20 C 499.28 624.09 500.72 623.09 502.16 622.08 Z" />
<path fill="#fefefe" opacity="1.00" d=" M 404.88 652.75 C 414.84 642.90 424.13 632.32 434.79 623.20 C 436.56 624.84 438.61 626.25 440.07 628.22 C 440.89 629.50 442.01 630.65 443.55 631.02 L 444.39 631.34 L 444.88 632.07 C 446.51 634.93 449.16 636.99 452.15 638.29 L 452.57 638.51 L 452.99 639.06 C 455.08 642.03 457.73 644.65 461.02 646.27 L 461.44 646.51 L 461.81 646.99 C 462.73 648.19 463.67 649.37 464.62 650.56 C 467.05 648.46 469.58 646.47 471.73 644.08 C 472.04 643.75 472.65 643.09 472.96 642.76 C 473.21 642.64 473.71 642.41 473.96 642.29 C 477.50 640.94 480.47 638.55 483.12 635.91 L 484.18 634.97 C 484.83 636.54 484.65 638.13 483.75 639.55 C 484.97 639.95 486.20 640.33 487.45 640.71 C 486.75 640.89 485.36 641.24 484.67 641.42 C 485.01 643.27 485.35 645.12 485.69 646.98 C 484.67 647.77 483.67 648.58 482.67 649.39 C 482.70 651.21 482.74 653.05 482.80 654.89 C 481.93 655.32 481.06 655.76 480.20 656.21 C 480.67 656.80 481.14 657.40 481.62 658.01 C 480.08 661.82 480.77 665.96 480.29 669.94 C 479.90 672.92 480.29 675.91 480.25 678.91 C 479.48 679.68 478.68 680.42 477.86 681.15 C 477.82 684.00 477.74 687.01 475.93 689.40 C 475.42 690.81 474.95 692.24 474.48 693.67 C 474.93 693.75 475.83 693.89 476.28 693.97 C 463.75 706.88 450.30 718.86 437.65 731.65 C 432.21 737.23 426.02 742.01 420.67 747.69 C 408.45 749.55 396.19 751.16 384.09 753.66 C 353.55 760.70 324.17 772.13 296.19 786.14 C 286.06 791.69 275.73 796.86 265.74 802.66 C 271.23 797.30 277.70 792.85 282.03 786.38 C 282.30 786.02 282.84 785.30 283.11 784.94 C 286.57 781.56 289.82 777.97 292.87 774.20 C 293.16 773.94 293.75 773.41 294.04 773.15 C 296.17 771.65 297.95 769.69 298.91 767.24 L 299.45 767.24 C 300.60 767.25 301.20 766.64 301.27 765.40 C 301.45 764.28 302.07 763.44 303.12 762.90 C 304.38 762.03 305.61 760.97 306.01 759.43 L 306.44 758.32 L 307.45 758.29 C 308.61 758.28 309.22 757.66 309.30 756.44 C 309.56 755.41 310.12 754.56 310.99 753.88 C 313.78 751.14 316.30 748.16 318.82 745.18 C 319.10 744.91 319.66 744.37 319.94 744.10 C 323.89 740.91 327.74 737.40 330.25 732.92 C 330.41 732.67 330.71 732.18 330.86 731.93 C 331.15 731.72 331.72 731.30 332.00 731.10 C 334.75 729.33 336.75 726.70 338.22 723.82 C 338.35 723.59 338.62 723.13 338.75 722.90 C 339.06 722.68 339.68 722.25 339.98 722.04 C 341.92 720.85 343.29 719.01 344.24 716.98 L 344.61 716.30 L 345.48 716.29 C 346.73 716.33 347.33 715.74 347.28 714.49 L 347.30 713.27 L 348.40 713.25 C 349.54 713.25 350.16 712.64 350.25 711.42 C 350.47 710.30 351.09 709.46 352.11 708.88 C 353.35 707.98 354.61 706.95 355.09 705.43 L 355.56 704.35 L 356.61 704.27 C 358.22 704.44 359.14 702.91 359.29 701.51 C 359.38 700.15 360.08 699.40 361.39 699.25 C 362.54 699.13 363.15 698.51 363.24 697.37 C 363.40 696.34 363.97 695.57 364.93 695.03 C 368.94 691.97 372.56 688.32 375.19 683.98 C 375.66 683.00 376.41 682.38 377.44 682.12 C 378.85 681.89 380.01 680.90 380.15 679.44 C 380.43 678.36 381.04 677.48 381.98 676.81 C 383.50 675.36 384.95 673.84 386.27 672.22 C 386.62 671.84 387.32 671.08 387.67 670.69 C 389.92 668.73 391.94 666.54 393.79 664.19 C 394.39 663.15 395.24 662.50 396.34 662.24 C 397.47 662.12 398.11 661.50 398.25 660.36 C 398.28 658.98 398.99 658.27 400.35 658.23 C 401.50 658.10 402.12 657.47 402.22 656.33 C 402.37 654.73 403.96 653.89 404.88 652.75 Z" />
<path fill="#fefefe" opacity="1.00" d=" M 484.62 635.18 C 483.77 633.94 486.11 632.66 487.01 633.55 C 486.90 634.67 485.83 636.16 484.62 635.18 Z" />
</g>
<g id="#83838435">
<path fill="#838384" opacity="0.21" d=" M 662.24 216.61 C 666.84 214.30 672.12 213.52 677.07 212.11 C 672.37 213.61 667.69 215.15 662.93 216.44 C 662.76 216.48 662.41 216.56 662.24 216.61 Z" />
<path fill="#838384" opacity="0.21" d=" M 716.76 223.49 C 718.65 226.88 719.08 230.82 720.39 234.44 C 724.32 246.47 727.21 258.81 731.18 270.83 C 731.48 271.79 731.63 272.78 731.61 273.80 C 729.75 268.20 728.27 262.48 726.37 256.89 C 723.72 245.60 719.69 234.71 716.76 223.49 Z" />
<path fill="#838384" opacity="0.21" d=" M 575.94 286.88 C 577.43 284.20 579.63 282.03 581.98 280.10 C 580.28 282.62 578.35 285.01 575.94 286.88 Z" />
<path fill="#838384" opacity="0.21" d=" M 564.23 299.23 C 566.25 296.05 568.88 293.25 571.97 291.08 C 569.56 293.96 567.09 296.80 564.23 299.23 Z" />
<path fill="#838384" opacity="0.21" d=" M 545.13 317.01 C 547.07 314.71 549.24 312.59 551.82 311.00 C 549.80 313.22 547.63 315.33 545.13 317.01 Z" />
<path fill="#838384" opacity="0.21" d=" M 537.45 324.10 C 536.64 322.51 539.92 319.16 541.11 320.92 C 540.37 322.43 539.02 323.54 537.45 324.10 Z" />
<path fill="#838384" opacity="0.21" d=" M 524.43 335.06 C 523.54 333.35 526.44 330.99 527.96 332.13 C 527.15 333.50 525.92 334.52 524.43 335.06 Z" />
<path fill="#838384" opacity="0.21" d=" M 519.41 339.08 C 518.40 337.34 521.39 334.89 522.90 336.22 C 522.02 337.48 520.82 338.45 519.41 339.08 Z" />
<path fill="#838384" opacity="0.21" d=" M 510.21 345.98 C 512.42 343.59 515.00 341.54 517.91 340.04 C 515.42 342.12 512.88 344.14 510.21 345.98 Z" />
<path fill="#838384" opacity="0.21" d=" M 506.22 348.23 L 507.10 347.59 L 507.97 347.92 C 507.54 348.23 506.68 348.85 506.25 349.16 L 506.22 348.23 Z" />
<path fill="#838384" opacity="0.21" d=" M 502.35 352.20 C 501.40 350.81 503.78 348.98 504.96 350.11 C 504.36 351.07 503.58 352.13 502.35 352.20 Z" />
<path fill="#838384" opacity="0.21" d=" M 491.20 359.28 L 492.04 358.61 L 492.91 358.89 C 492.50 359.21 491.68 359.86 491.27 360.19 L 491.20 359.28 Z" />
<path fill="#838384" opacity="0.21" d=" M 487.25 363.08 C 486.35 361.65 488.82 359.88 489.96 361.06 C 489.34 362.03 488.46 362.95 487.25 363.08 Z" />
<path fill="#838384" opacity="0.21" d=" M 477.29 370.19 C 476.32 368.75 478.83 366.98 479.96 368.21 C 479.32 369.13 478.49 370.09 477.29 370.19 Z" />
<path fill="#838384" opacity="0.21" d=" M 684.02 372.88 C 684.86 370.92 686.32 369.35 687.99 368.06 C 686.73 369.72 685.47 371.38 684.02 372.88 Z" />
<path fill="#838384" opacity="0.21" d=" M 717.18 376.09 C 722.80 389.60 725.87 404.00 729.59 418.11 C 732.86 433.26 735.44 448.57 736.96 464.00 C 737.29 471.35 739.19 478.78 737.98 486.11 C 737.88 484.23 737.79 482.37 737.65 480.50 C 736.99 471.12 735.92 461.77 734.79 452.43 C 733.78 445.25 733.26 437.96 731.40 430.93 C 729.91 423.81 729.12 416.52 726.61 409.66 C 724.32 398.25 720.88 387.11 717.18 376.09 Z" />
<path fill="#838384" opacity="0.21" d=" M 668.13 389.02 C 672.09 385.03 675.82 380.77 680.08 377.10 C 676.60 381.55 672.69 385.68 668.13 389.02 Z" />
<path fill="#838384" opacity="0.21" d=" M 654.26 400.99 C 653.34 399.64 655.76 397.79 656.86 399.00 C 656.71 399.30 656.41 399.89 656.26 400.18 C 655.76 400.38 654.76 400.79 654.26 400.99 Z" />
<path fill="#838384" opacity="0.21" d=" M 650.28 404.12 C 649.33 402.71 651.78 400.91 652.93 402.11 C 652.30 403.04 651.49 404.05 650.28 404.12 Z" />
<path fill="#838384" opacity="0.21" d=" M 414.31 413.16 C 413.30 411.72 415.83 409.83 416.98 411.13 C 416.36 412.11 415.42 412.82 414.31 413.16 Z" />
<path fill="#838384" opacity="0.21" d=" M 410.84 415.66 C 410.65 414.00 411.36 413.45 412.95 414.02 C 412.61 415.11 411.90 415.66 410.84 415.66 Z" />
<path fill="#838384" opacity="0.21" d=" M 405.39 419.97 C 404.37 418.26 407.46 415.99 408.92 417.27 C 408.17 418.65 406.77 419.39 405.39 419.97 Z" />
<path fill="#838384" opacity="0.21" d=" M 401.37 423.02 C 400.42 421.70 402.74 419.77 403.90 420.93 C 403.75 421.24 403.47 421.84 403.33 422.14 C 402.84 422.36 401.86 422.80 401.37 423.02 Z" />
<path fill="#838384" opacity="0.21" d=" M 395.42 428.16 C 394.53 426.45 397.36 424.09 398.91 425.18 C 398.08 426.52 396.94 427.65 395.42 428.16 Z" />
<path fill="#838384" opacity="0.21" d=" M 388.40 434.15 C 387.25 432.79 389.64 430.68 390.89 431.93 C 390.30 432.90 389.49 433.74 388.40 434.15 Z" />
<path fill="#838384" opacity="0.21" d=" M 384.11 438.07 C 383.77 436.32 384.46 435.68 386.18 436.17 C 385.77 437.10 385.08 437.74 384.11 438.07 Z" />
<path fill="#838384" opacity="0.21" d=" M 375.17 446.08 C 377.12 443.77 379.30 441.64 381.89 440.07 C 379.90 442.33 377.60 444.30 375.17 446.08 Z" />
<path fill="#838384" opacity="0.21" d=" M 367.91 453.90 C 369.48 451.26 371.68 449.09 374.04 447.15 C 372.12 449.51 370.08 451.77 367.91 453.90 Z" />
<path fill="#838384" opacity="0.21" d=" M 539.27 461.31 C 539.39 459.59 540.24 459.17 541.84 460.06 C 541.16 460.88 540.30 461.29 539.27 461.31 Z" />
<path fill="#838384" opacity="0.21" d=" M 527.06 466.00 C 530.15 464.17 533.56 463.02 536.96 461.92 C 533.83 463.67 530.42 464.79 527.06 466.00 Z" />
<path fill="#838384" opacity="0.21" d=" M 353.97 469.87 C 354.95 468.01 356.27 466.35 357.94 465.08 C 356.65 466.71 355.37 468.33 353.97 469.87 Z" />
<path fill="#838384" opacity="0.21" d=" M 350.14 474.97 C 348.87 473.81 350.76 471.27 352.20 472.31 C 351.85 473.42 351.13 474.36 350.14 474.97 Z" />
<path fill="#838384" opacity="0.21" d=" M 347.09 478.96 C 345.86 477.78 347.76 475.30 349.17 476.34 C 348.84 477.45 348.13 478.40 347.09 478.96 Z" />
<path fill="#838384" opacity="0.21" d=" M 345.27 480.17 L 346.19 480.22 C 345.87 480.64 345.23 481.47 344.90 481.89 L 344.61 481.03 L 345.27 480.17 Z" />
<path fill="#838384" opacity="0.21" d=" M 343.22 483.18 L 344.14 483.20 C 343.83 483.64 343.22 484.50 342.92 484.94 L 342.59 484.07 L 343.22 483.18 Z" />
<path fill="#838384" opacity="0.21" d=" M 338.18 492.07 C 336.91 490.94 338.65 488.29 340.13 489.29 C 339.83 490.42 339.13 491.38 338.18 492.07 Z" />
<path fill="#838384" opacity="0.21" d=" M 465.96 493.08 C 467.80 491.80 469.82 490.82 471.94 490.10 C 470.08 491.35 468.05 492.31 465.96 493.08 Z" />
<path fill="#838384" opacity="0.21" d=" M 333.06 500.08 C 334.09 497.55 335.42 495.13 337.31 493.14 C 335.98 495.50 334.59 497.84 333.06 500.08 Z" />
<path fill="#838384" opacity="0.21" d=" M 330.27 505.09 C 328.96 504.03 330.53 501.25 332.06 502.21 C 331.81 503.34 331.19 504.36 330.27 505.09 Z" />
<path fill="#838384" opacity="0.21" d=" M 439.40 507.99 C 438.89 506.03 442.30 504.19 443.94 505.11 C 442.78 506.56 441.23 507.63 439.40 507.99 Z" />
<path fill="#838384" opacity="0.21" d=" M 317.81 529.19 C 319.87 523.57 322.44 518.09 325.82 513.14 C 323.34 518.59 320.57 523.89 317.81 529.19 Z" />
<path fill="#838384" opacity="0.21" d=" M 665.97 533.00 C 674.07 530.30 682.22 527.24 690.77 526.34 C 689.74 526.76 688.70 527.15 687.71 527.59 C 680.24 528.40 673.21 531.20 665.97 533.00 Z" />
<path fill="#838384" opacity="0.21" d=" M 408.29 529.16 C 407.38 527.75 409.77 525.85 410.94 527.07 C 410.28 527.99 409.52 529.05 408.29 529.16 Z" />
<path fill="#838384" opacity="0.21" d=" M 311.76 542.75 C 313.35 538.83 314.74 534.80 316.89 531.15 C 311.56 544.86 306.05 558.55 302.23 572.78 C 295.48 594.71 291.86 617.45 289.68 640.25 C 289.48 642.21 289.38 644.18 289.41 646.17 C 289.67 646.65 290.18 647.61 290.43 648.09 C 291.96 649.34 287.87 649.48 288.79 647.92 C 288.62 636.21 290.71 624.63 292.26 613.06 C 296.51 589.08 303.05 565.50 311.76 542.75 Z" />
<path fill="#838384" opacity="0.21" d=" M 391.08 542.92 C 392.75 541.05 394.72 539.50 396.83 538.16 C 395.15 540.01 393.13 541.50 391.08 542.92 Z" />
<path fill="#838384" opacity="0.21" d=" M 626.28 547.27 C 626.41 545.55 627.27 545.14 628.87 546.05 C 628.18 546.84 627.31 547.25 626.28 547.27 Z" />
<path fill="#838384" opacity="0.21" d=" M 619.35 550.19 C 618.95 548.26 622.42 547.00 623.83 548.12 C 622.56 549.22 621.03 550.00 619.35 550.19 Z" />
<path fill="#838384" opacity="0.21" d=" M 612.42 553.18 C 611.96 551.26 615.47 549.92 616.82 551.15 C 615.57 552.22 614.07 552.98 612.42 553.18 Z" />
<path fill="#838384" opacity="0.21" d=" M 359.99 573.93 C 362.69 569.85 366.20 566.35 369.87 563.15 C 366.83 566.97 363.62 570.66 359.99 573.93 Z" />
<path fill="#838384" opacity="0.21" d=" M 585.37 567.03 C 584.73 564.93 588.22 563.18 589.87 564.27 C 588.63 565.57 587.12 566.57 585.37 567.03 Z" />
<path fill="#838384" opacity="0.21" d=" M 580.27 570.04 C 579.25 568.54 581.96 566.88 583.05 568.18 C 582.30 569.02 581.45 569.89 580.27 570.04 Z" />
<path fill="#838384" opacity="0.21" d=" M 356.16 578.93 C 355.10 577.36 357.38 574.51 359.11 575.36 C 358.63 576.91 357.51 578.07 356.16 578.93 Z" />
<path fill="#838384" opacity="0.21" d=" M 344.00 593.94 C 343.41 592.35 343.95 591.63 345.61 591.80 C 345.62 592.86 345.09 593.57 344.00 593.94 Z" />
<path fill="#838384" opacity="0.21" d=" M 341.07 597.98 C 339.83 596.80 341.71 594.27 343.13 595.32 C 342.81 596.44 342.06 597.36 341.07 597.98 Z" />
<path fill="#838384" opacity="0.21" d=" M 337.09 603.82 C 336.17 602.13 338.12 598.76 340.13 599.36 C 339.62 601.15 338.52 602.65 337.09 603.82 Z" />
<path fill="#838384" opacity="0.21" d=" M 692.88 622.55 C 696.22 622.10 699.59 621.80 702.94 621.32 C 702.40 622.51 701.86 623.71 701.33 624.90 L 701.80 622.85 C 692.46 622.33 683.26 624.49 673.96 624.92 C 654.20 627.73 634.43 630.55 614.84 634.42 C 602.74 637.49 590.36 639.74 578.73 644.44 C 580.14 642.37 581.77 640.44 583.80 638.97 C 582.91 640.14 582.22 641.42 581.72 642.81 C 590.20 639.31 599.33 637.99 608.06 635.26 C 612.85 634.86 617.29 632.88 622.02 632.17 C 645.52 628.15 669.10 624.37 692.88 622.55 Z" />
<path fill="#838384" opacity="0.21" d=" M 322.26 627.89 C 321.22 626.28 322.97 622.70 325.00 623.33 C 324.65 625.13 323.55 626.62 322.26 627.89 Z" />
<path fill="#838384" opacity="0.21" d=" M 440.07 628.22 C 441.54 627.05 444.51 629.34 443.55 631.02 C 442.01 630.65 440.89 629.50 440.07 628.22 Z" />
<path fill="#838384" opacity="0.21" d=" M 311.76 648.13 C 314.04 641.76 317.21 635.67 320.87 629.99 C 318.15 636.19 314.81 642.09 311.76 648.13 Z" />
<path fill="#838384" opacity="0.21" d=" M 307.20 658.77 C 307.48 655.51 309.46 652.79 310.96 650.00 C 309.79 652.96 308.64 655.93 307.20 658.77 Z" />
<path fill="#838384" opacity="0.21" d=" M 387.67 670.69 C 389.37 668.23 391.53 666.14 393.79 664.19 C 391.94 666.54 389.92 668.73 387.67 670.69 Z" />
<path fill="#838384" opacity="0.21" d=" M 381.98 676.81 C 383.01 674.94 384.44 673.34 386.27 672.22 C 384.95 673.84 383.50 675.36 381.98 676.81 Z" />
<path fill="#838384" opacity="0.21" d=" M 498.11 680.44 C 499.19 679.00 500.33 677.62 501.52 676.28 C 501.34 677.24 500.96 679.17 500.78 680.14 L 500.62 680.40 C 500.58 680.46 500.50 680.59 500.46 680.65 C 500.12 681.20 499.42 682.29 499.07 682.84 C 499.25 682.17 499.62 680.83 499.81 680.15 L 498.11 680.44 Z" />
<path fill="#838384" opacity="0.21" d=" M 489.95 700.95 C 491.04 697.42 492.66 694.05 494.95 691.14 C 493.73 694.62 491.80 697.77 489.95 700.95 Z" />
<path fill="#838384" opacity="0.21" d=" M 484.10 711.89 C 485.58 708.87 486.75 705.63 488.90 702.99 C 487.54 706.08 486.19 709.22 484.10 711.89 Z" />
<path fill="#838384" opacity="0.21" d=" M 352.11 708.88 C 350.96 707.32 353.39 704.46 355.09 705.43 C 354.61 706.95 353.35 707.98 352.11 708.88 Z" />
<path fill="#838384" opacity="0.21" d=" M 477.11 724.00 C 475.87 722.87 477.63 720.34 479.09 721.27 C 478.97 722.47 478.01 723.30 477.11 724.00 Z" />
<path fill="#838384" opacity="0.21" d=" M 476.03 725.13 C 475.93 725.40 475.73 725.94 475.63 726.22 C 474.57 728.19 473.26 730.01 472.00 731.86 C 472.98 729.41 474.30 727.12 476.03 725.13 Z" />
<path fill="#838384" opacity="0.21" d=" M 310.99 753.88 C 313.09 750.56 315.90 747.77 318.82 745.18 C 316.30 748.16 313.78 751.14 310.99 753.88 Z" />
<path fill="#838384" opacity="0.21" d=" M 456.01 752.95 C 456.88 751.03 458.27 749.43 459.94 748.15 C 458.64 749.76 457.40 751.41 456.01 752.95 Z" />
<path fill="#838384" opacity="0.21" d=" M 303.12 762.90 C 301.97 761.36 304.31 758.50 306.01 759.43 C 305.61 760.97 304.38 762.03 303.12 762.90 Z" />
<path fill="#838384" opacity="0.21" d=" M 283.11 784.94 C 285.24 780.55 289.41 777.53 292.87 774.20 C 289.82 777.97 286.57 781.56 283.11 784.94 Z" />
</g>
<g id="#cbcacbfd">
<path fill="#cbcacb" opacity="1.00" d=" M 590.62 237.79 C 614.32 230.55 638.16 223.78 661.90 216.68 C 657.42 219.59 652.03 220.34 647.03 221.95 C 634.06 225.53 621.33 229.91 608.31 233.32 C 602.38 234.69 596.73 237.29 590.62 237.79 Z" />
<path fill="#cbcacb" opacity="1.00" d=" M 564.02 245.10 C 572.76 242.96 581.22 239.74 590.07 238.05 C 584.04 240.94 577.38 242.07 571.07 244.15 C 563.32 246.13 555.70 248.78 547.75 249.80 C 553.01 247.73 558.62 246.77 564.02 245.10 Z" />
<path fill="#cbcacb" opacity="1.00" d=" M 535.71 252.99 C 539.54 252.04 543.26 250.68 547.17 250.07 C 541.51 252.85 535.09 253.46 529.38 256.15 C 539.90 259.96 550.65 263.14 561.19 266.92 C 569.46 270.29 578.33 272.18 586.23 276.45 C 585.75 276.79 584.78 277.48 584.29 277.83 L 584.35 276.52 C 578.52 273.74 572.20 271.92 566.09 269.76 C 556.89 266.63 547.77 263.25 538.49 260.36 C 534.56 259.09 530.54 258.05 526.78 256.32 C 529.41 254.45 532.68 253.94 535.71 252.99 Z" />
<path fill="#cbcacb" opacity="1.00" d=" M 731.71 274.18 C 736.17 285.75 738.69 297.95 742.18 309.83 C 745.04 319.67 747.54 329.61 750.27 339.48 C 751.26 343.90 752.77 348.21 753.07 352.76 C 743.18 347.41 732.74 343.18 722.64 338.24 C 712.88 333.35 702.92 328.88 693.06 324.21 C 691.71 328.65 688.45 332.13 685.83 335.85 C 664.67 365.17 637.27 389.81 606.48 408.68 C 588.88 419.88 570.07 428.96 551.53 438.45 C 523.08 452.42 494.25 465.62 466.05 480.10 C 435.74 495.61 406.42 513.58 380.98 536.35 C 351.44 561.70 327.53 592.90 306.68 625.59 C 304.43 628.83 302.14 632.05 300.53 635.67 L 299.20 635.25 C 299.43 635.82 299.90 636.97 300.14 637.54 C 299.54 637.52 298.34 637.48 297.74 637.46 C 294.79 640.61 292.67 644.43 290.43 648.09 C 290.18 647.61 289.67 646.65 289.41 646.17 C 289.38 644.18 289.48 642.21 289.68 640.25 C 291.72 637.35 293.17 634.11 294.79 630.97 C 309.59 604.30 327.21 579.21 347.27 556.24 C 358.53 544.51 369.95 532.90 382.52 522.57 C 410.48 499.08 442.70 481.43 475.27 465.22 C 507.54 449.10 540.35 434.05 572.35 417.37 C 587.89 409.27 603.04 400.43 617.52 390.57 C 636.04 378.52 653.40 364.68 669.17 349.21 C 677.72 341.04 685.75 332.31 692.85 322.83 C 699.11 326.11 705.70 328.70 712.01 331.90 C 725.33 338.50 739.12 344.12 752.27 351.07 C 750.45 342.68 747.83 334.49 745.77 326.17 C 741.28 308.79 735.68 291.68 731.71 274.18 Z" />
<path fill="#cbcacb" opacity="1.00" d=" M 573.52 290.24 C 573.11 288.69 573.70 288.06 575.29 288.37 C 575.32 289.50 574.73 290.13 573.52 290.24 Z" />
<path fill="#cbcacb" opacity="1.00" d=" M 556.96 306.22 C 558.94 303.66 561.35 301.45 563.93 299.50 C 562.43 302.47 560.03 304.88 556.96 306.22 Z" />
<path fill="#cbcacb" opacity="1.00" d=" M 554.45 309.27 C 554.12 307.73 554.73 307.12 556.28 307.47 C 556.30 308.63 555.69 309.23 554.45 309.27 Z" />
<path fill="#cbcacb" opacity="1.00" d=" M 542.40 320.21 C 542.12 318.69 542.74 318.11 544.25 318.47 C 544.25 319.72 543.64 320.30 542.40 320.21 Z" />
<path fill="#cbcacb" opacity="1.00" d=" M 529.92 330.31 C 531.51 328.05 534.00 326.72 536.17 325.11 C 534.78 327.56 532.43 329.16 529.92 330.31 Z" />
<path fill="#cbcacb" opacity="1.00" d=" M 699.87 351.98 C 701.04 349.49 702.55 347.18 704.17 344.95 C 705.90 348.61 708.03 352.12 709.07 356.07 C 708.25 354.78 707.42 353.51 706.61 352.24 C 706.12 352.01 705.13 351.55 704.64 351.32 C 704.46 350.00 704.30 348.68 704.14 347.37 C 702.74 348.93 701.34 350.49 699.87 351.98 Z" />
<path fill="#cbcacb" opacity="1.00" d=" M 493.87 358.35 C 495.92 356.15 498.47 354.51 501.05 353.02 C 499.31 355.57 496.76 357.33 493.87 358.35 Z" />
<path fill="#cbcacb" opacity="1.00" d=" M 688.94 367.10 C 691.67 362.26 695.44 358.12 698.63 353.59 C 696.73 358.86 693.07 363.38 688.94 367.10 Z" />
<path fill="#cbcacb" opacity="1.00" d=" M 711.76 362.72 C 714.10 366.62 715.50 371.02 716.77 375.37 C 714.21 371.56 712.57 367.23 711.76 362.72 Z" />
<path fill="#cbcacb" opacity="1.00" d=" M 483.39 366.29 C 482.69 364.95 485.03 363.53 486.10 364.38 C 486.02 365.76 484.56 366.26 483.39 366.29 Z" />
<path fill="#cbcacb" opacity="1.00" d=" M 471.56 374.33 C 471.51 372.71 474.39 371.13 475.93 371.49 C 475.37 373.40 473.54 374.63 471.56 374.33 Z" />
<path fill="#cbcacb" opacity="1.00" d=" M 452.00 387.25 C 457.69 382.73 463.85 378.76 470.05 374.99 C 467.24 378.35 463.22 380.25 459.72 382.75 C 457.28 384.48 454.77 386.11 452.00 387.25 Z" />
<path fill="#cbcacb" opacity="1.00" d=" M 419.41 408.88 C 430.02 402.03 440.01 394.16 451.01 387.95 C 445.67 392.79 439.28 396.27 433.43 400.45 C 428.84 403.41 424.69 407.09 419.65 409.31 L 419.41 408.88 Z" />
<path fill="#cbcacb" opacity="1.00" d=" M 661.10 395.21 C 662.94 393.24 664.99 391.47 667.24 389.98 C 665.78 392.33 663.64 394.13 661.10 395.21 Z" />
<path fill="#cbcacb" opacity="1.00" d=" M 658.39 398.19 C 658.10 396.65 658.73 396.06 660.29 396.40 C 660.27 397.58 659.64 398.17 658.39 398.19 Z" />
<path fill="#cbcacb" opacity="1.00" d=" M 647.35 405.47 C 647.76 405.43 648.57 405.34 648.98 405.30 C 648.57 405.56 647.74 406.07 647.32 406.33 L 647.35 405.47 Z" />
<path fill="#cbcacb" opacity="1.00" d=" M 643.39 409.21 C 642.68 407.87 645.01 406.52 646.04 407.42 C 645.89 408.67 644.58 409.51 643.39 409.21 Z" />
<path fill="#cbcacb" opacity="1.00" d=" M 635.06 414.28 C 637.44 412.54 639.72 410.54 642.46 409.35 C 640.51 411.67 638.04 413.56 635.06 414.28 Z" />
<path fill="#cbcacb" opacity="1.00" d=" M 629.47 418.19 C 629.48 416.47 632.36 415.04 633.93 415.39 C 633.50 417.49 631.35 418.14 629.47 418.19 Z" />
<path fill="#cbcacb" opacity="1.00" d=" M 618.63 424.17 C 621.33 422.21 624.24 420.52 627.26 419.08 C 624.83 421.45 622.00 423.45 618.63 424.17 Z" />
<path fill="#cbcacb" opacity="1.00" d=" M 614.31 427.27 C 613.69 425.92 616.00 424.60 617.06 425.43 C 616.99 426.82 615.48 427.34 614.31 427.27 Z" />
<path fill="#cbcacb" opacity="1.00" d=" M 594.28 436.74 C 600.31 434.09 605.96 430.61 612.03 428.04 C 606.82 432.19 600.61 435.01 594.36 437.19 L 594.28 436.74 Z" />
<path fill="#cbcacb" opacity="1.00" d=" M 392.37 431.24 C 392.04 429.67 392.68 429.07 394.29 429.44 C 394.16 430.58 393.52 431.18 392.37 431.24 Z" />
<path fill="#cbcacb" opacity="1.00" d=" M 576.91 445.24 C 579.78 443.56 582.85 442.22 585.94 441.01 C 583.59 443.56 580.21 444.57 576.91 445.24 Z" />
<path fill="#cbcacb" opacity="1.00" d=" M 568.56 448.84 C 570.62 447.60 572.83 446.64 575.16 446.04 C 573.39 447.81 570.94 448.41 568.56 448.84 Z" />
<path fill="#cbcacb" opacity="1.00" d=" M 561.05 452.29 C 563.22 450.83 565.67 449.80 568.20 449.12 C 566.24 450.99 563.72 452.03 561.05 452.29 Z" />
<path fill="#cbcacb" opacity="1.00" d=" M 554.49 455.39 C 554.48 453.77 557.62 452.95 559.00 453.49 C 558.21 455.20 556.20 455.65 554.49 455.39 Z" />
<path fill="#cbcacb" opacity="1.00" d=" M 359.98 463.06 C 361.43 460.21 363.78 457.95 366.21 455.93 C 364.71 458.76 362.65 461.26 359.98 463.06 Z" />
<path fill="#cbcacb" opacity="1.00" d=" M 544.01 459.23 C 546.46 457.72 549.17 456.68 551.96 456.00 C 549.74 457.96 546.89 458.84 544.01 459.23 Z" />
<path fill="#cbcacb" opacity="1.00" d=" M 499.67 477.41 C 506.60 474.11 513.65 470.85 520.97 468.54 C 516.65 471.37 511.70 472.91 507.05 475.06 C 504.70 476.16 502.23 476.98 499.67 477.41 Z" />
<path fill="#cbcacb" opacity="1.00" d=" M 481.92 485.28 C 487.04 482.27 492.64 480.14 498.19 478.06 C 493.44 481.66 487.64 483.76 481.92 485.28 Z" />
<path fill="#cbcacb" opacity="1.00" d=" M 617.69 517.60 C 656.56 501.98 696.61 489.05 737.65 480.50 C 737.79 482.37 737.88 484.23 737.98 486.11 L 738.01 486.65 C 719.97 491.62 701.76 496.03 683.98 501.93 C 663.49 508.01 643.53 515.71 623.71 523.67 C 591.31 536.90 560.21 553.38 531.43 573.33 C 518.23 581.93 505.97 591.86 493.46 601.41 C 488.18 605.58 483.23 610.17 477.85 614.21 C 476.52 615.14 475.01 614.03 473.85 613.38 C 459.62 603.47 445.02 594.10 430.64 584.43 C 425.99 581.66 421.70 578.38 417.37 575.16 C 411.25 592.71 403.72 609.89 393.39 625.41 C 373.89 657.35 351.25 687.19 329.18 717.36 C 316.43 735.20 302.95 752.52 290.43 770.51 C 287.91 774.17 284.69 777.30 282.35 781.10 C 280.17 784.79 276.73 787.74 275.53 791.98 C 277.51 790.34 279.34 788.53 280.89 786.48 C 281.17 786.45 281.74 786.40 282.03 786.38 C 277.70 792.85 271.23 797.30 265.74 802.66 C 275.73 796.86 286.06 791.69 296.19 786.14 C 324.17 772.13 353.55 760.70 384.09 753.66 C 396.19 751.16 408.45 749.55 420.67 747.69 C 426.02 742.01 432.21 737.23 437.65 731.65 C 450.30 718.86 463.75 706.88 476.28 693.97 C 475.83 693.89 474.93 693.75 474.48 693.67 C 474.95 692.24 475.42 690.81 475.93 689.40 C 477.74 687.01 477.82 684.00 477.86 681.15 C 478.68 680.42 479.48 679.68 480.25 678.91 C 480.29 675.91 479.90 672.92 480.29 669.94 C 480.77 665.96 480.08 661.82 481.62 658.01 C 481.14 657.40 480.67 656.80 480.20 656.21 C 481.06 655.76 481.93 655.32 482.80 654.89 C 482.74 653.05 482.70 651.21 482.67 649.39 C 483.67 648.58 484.67 647.77 485.69 646.98 C 485.35 645.12 485.01 643.27 484.67 641.42 C 485.36 641.24 486.75 640.89 487.45 640.71 C 486.20 640.33 484.97 639.95 483.75 639.55 C 484.65 638.13 484.83 636.54 484.18 634.97 L 484.62 635.18 C 485.83 636.16 486.90 634.67 487.01 633.55 C 487.08 632.10 488.56 631.58 489.49 630.78 C 492.30 628.94 494.88 626.69 497.91 625.20 C 500.31 624.47 502.56 623.28 503.94 621.11 C 504.29 620.94 504.98 620.59 505.33 620.42 C 505.71 620.38 506.47 620.29 506.85 620.25 L 506.99 619.49 C 506.94 617.97 508.64 617.56 509.56 616.74 C 529.13 603.94 547.80 589.70 568.06 577.98 C 564.55 582.22 559.69 585.02 555.99 589.06 C 536.50 609.77 523.20 635.21 510.52 660.41 C 507.15 666.92 504.92 674.03 500.78 680.14 C 500.96 679.17 501.34 677.24 501.52 676.28 C 500.33 677.62 499.19 679.00 498.11 680.44 C 493.96 686.07 488.81 690.86 483.96 695.88 C 472.44 707.73 461.18 719.83 449.28 731.30 C 441.18 739.15 433.43 747.36 425.11 754.98 C 385.68 761.50 346.71 771.57 309.69 786.79 C 299.66 790.86 289.78 795.29 279.95 799.83 C 273.83 802.13 268.38 806.01 261.96 807.53 C 264.31 802.44 267.03 797.50 267.95 791.90 C 267.94 793.26 267.96 794.63 267.99 796.01 C 274.39 786.04 280.90 776.15 287.06 766.04 C 293.52 755.71 301.10 746.13 307.74 735.92 C 313.34 726.93 319.64 718.40 325.65 709.69 C 336.22 694.89 346.48 679.88 357.04 665.07 C 367.36 650.00 377.86 635.03 387.16 619.30 C 397.13 603.28 406.53 586.69 412.30 568.64 C 433.55 581.00 453.46 595.52 474.07 608.89 C 479.98 604.62 485.08 599.38 490.62 594.67 C 528.03 561.76 571.65 536.38 617.69 517.60 Z" />
<path fill="#cbcacb" opacity="1.00" d=" M 341.41 486.32 L 342.31 486.27 C 342.05 486.71 341.51 487.58 341.24 488.02 L 340.85 487.21 L 341.41 486.32 Z" />
<path fill="#cbcacb" opacity="1.00" d=" M 474.06 488.57 C 476.11 487.80 478.10 486.90 480.15 486.12 C 478.59 487.78 476.55 488.88 474.30 489.26 L 474.06 488.57 Z" />
<path fill="#cbcacb" opacity="1.00" d=" M 452.75 500.11 C 456.25 497.60 460.12 495.64 464.13 494.07 C 460.97 497.07 456.92 498.97 452.75 500.11 Z" />
<path fill="#cbcacb" opacity="1.00" d=" M 446.44 504.17 C 446.26 502.35 449.36 501.06 450.91 501.41 C 450.35 503.40 448.32 504.13 446.44 504.17 Z" />
<path fill="#cbcacb" opacity="1.00" d=" M 327.41 511.02 C 326.58 509.84 327.81 506.98 329.38 507.45 C 329.54 508.95 328.79 510.37 327.41 511.02 Z" />
<path fill="#cbcacb" opacity="1.00" d=" M 427.91 515.19 C 430.71 512.75 433.72 510.49 437.15 509.02 C 434.68 511.87 431.42 513.87 427.91 515.19 Z" />
<path fill="#cbcacb" opacity="1.00" d=" M 423.49 518.39 C 423.04 516.90 425.74 515.71 426.92 516.37 C 426.54 517.86 424.96 518.69 423.49 518.39 Z" />
<path fill="#cbcacb" opacity="1.00" d=" M 713.63 521.22 C 720.36 518.69 727.98 519.27 734.71 516.48 C 734.51 517.99 734.32 519.52 734.07 521.03 C 731.97 535.99 727.32 550.41 723.44 564.96 C 721.21 571.05 719.72 577.41 717.34 583.44 C 714.73 585.41 711.12 585.19 708.11 586.23 C 686.93 590.66 665.70 595.38 645.52 603.34 C 623.44 612.23 601.58 622.85 583.80 638.97 C 581.77 640.44 580.14 642.37 578.73 644.44 C 575.22 646.33 571.48 647.74 567.78 649.20 C 570.85 642.26 574.62 635.50 580.16 630.21 C 594.26 617.21 611.61 608.48 629.13 601.05 C 656.12 589.74 684.75 582.66 713.69 578.60 C 720.82 558.69 727.42 538.60 733.08 518.22 C 726.60 519.28 720.20 520.87 713.63 521.22 Z" />
<path fill="#cbcacb" opacity="1.00" d=" M 411.91 526.30 C 414.96 523.47 418.36 520.92 422.05 518.95 C 419.36 522.24 415.77 524.63 411.91 526.30 Z" />
<path fill="#cbcacb" opacity="1.00" d=" M 403.47 533.21 C 403.02 531.64 405.56 529.94 406.98 530.47 C 406.66 532.12 405.20 533.41 403.47 533.21 Z" />
<path fill="#cbcacb" opacity="1.00" d=" M 398.49 537.30 C 397.99 535.74 400.51 533.89 401.97 534.38 C 401.64 536.05 400.22 537.33 398.49 537.30 Z" />
<path fill="#cbcacb" opacity="1.00" d=" M 630.95 545.18 C 635.17 543.05 639.66 541.30 644.29 540.26 C 640.12 542.56 635.67 544.39 630.95 545.18 Z" />
<path fill="#cbcacb" opacity="1.00" d=" M 388.40 546.24 C 388.07 544.66 388.70 544.05 390.28 544.39 C 390.19 545.54 389.56 546.15 388.40 546.24 Z" />
<path fill="#cbcacb" opacity="1.00" d=" M 377.04 556.23 C 379.68 553.12 382.58 550.18 385.98 547.90 C 383.49 551.14 380.80 554.41 377.04 556.23 Z" />
<path fill="#cbcacb" opacity="1.00" d=" M 603.09 557.39 C 605.25 555.95 607.57 554.68 610.12 554.07 C 608.31 556.10 605.73 557.03 603.09 557.39 Z" />
<path fill="#cbcacb" opacity="1.00" d=" M 374.46 559.27 C 374.15 557.75 374.76 557.16 376.27 557.50 C 376.30 558.74 375.70 559.34 374.46 559.27 Z" />
<path fill="#cbcacb" opacity="1.00" d=" M 598.44 560.29 C 597.98 558.78 600.78 557.67 601.92 558.40 C 601.56 559.94 599.85 560.51 598.44 560.29 Z" />
<path fill="#cbcacb" opacity="1.00" d=" M 371.45 562.30 C 371.13 560.75 371.74 560.14 373.28 560.48 C 373.31 561.63 372.70 562.24 371.45 562.30 Z" />
<path fill="#cbcacb" opacity="1.00" d=" M 592.44 563.30 C 592.01 561.72 594.84 560.70 596.03 561.38 C 595.59 562.95 593.87 563.38 592.44 563.30 Z" />
<path fill="#cbcacb" opacity="1.00" d=" M 568.91 577.24 C 571.61 574.64 574.90 572.76 578.18 570.99 C 575.71 573.87 572.41 575.86 568.91 577.24 Z" />
<path fill="#cbcacb" opacity="1.00" d=" M 351.00 585.06 C 352.00 583.05 353.36 581.19 355.26 579.94 C 354.27 581.97 352.92 583.82 351.00 585.06 Z" />
<path fill="#cbcacb" opacity="1.00" d=" M 347.40 590.07 C 346.85 588.63 348.69 586.09 350.24 586.51 C 350.40 588.29 349.03 589.64 347.40 590.07 Z" />
<path fill="#cbcacb" opacity="1.00" d=" M 326.03 621.11 C 328.33 616.46 331.06 611.94 334.29 607.89 C 332.20 612.65 329.65 617.32 326.03 621.11 Z" />
<path fill="#cbcacb" opacity="1.00" d=" M 696.58 627.54 C 697.72 625.38 699.64 623.91 701.80 622.85 L 701.33 624.90 C 694.46 639.06 685.91 652.31 677.49 665.57 C 674.82 669.51 672.26 673.59 669.04 677.11 C 665.18 678.46 661.01 678.40 657.01 679.06 C 632.20 682.62 606.98 686.00 583.60 695.52 C 579.77 696.87 575.80 698.67 573.62 702.29 C 568.48 710.26 564.60 719.09 558.31 726.29 C 551.22 735.63 542.09 743.27 531.82 748.90 C 513.41 758.79 492.74 764.12 471.96 765.75 C 463.63 765.70 455.23 766.22 446.94 765.10 C 445.31 764.38 446.41 762.41 447.74 762.09 C 449.36 762.92 451.27 762.29 453.00 762.21 C 479.27 759.13 506.16 753.94 528.97 739.87 C 542.96 730.72 553.80 717.45 561.87 702.95 C 564.06 698.97 566.36 694.65 570.62 692.55 C 578.68 688.36 587.39 685.61 596.09 683.08 C 614.10 678.15 632.56 675.10 651.05 672.60 C 656.23 671.87 661.52 671.93 666.65 670.75 C 669.84 665.38 674.05 660.72 677.46 655.49 C 683.62 646.03 690.79 637.25 696.58 627.54 Z" />
<path fill="#cbcacb" opacity="1.00" d=" M 444.88 632.07 C 447.46 633.94 450.21 635.70 452.15 638.29 C 449.16 636.99 446.51 634.93 444.88 632.07 Z" />
<path fill="#cbcacb" opacity="1.00" d=" M 473.96 642.29 C 476.63 639.67 479.71 637.44 483.12 635.91 C 480.47 638.55 477.50 640.94 473.96 642.29 Z" />
<path fill="#cbcacb" opacity="1.00" d=" M 452.99 639.06 C 456.06 640.97 458.82 643.39 461.02 646.27 C 457.73 644.65 455.08 642.03 452.99 639.06 Z" />
<path fill="#cbcacb" opacity="1.00" d=" M 464.13 648.77 C 466.97 647.06 469.59 645.05 472.29 643.16 L 471.73 644.08 C 469.58 646.47 467.05 648.46 464.62 650.56 C 463.67 649.37 462.73 648.19 461.81 646.99 C 462.39 647.44 463.55 648.32 464.13 648.77 Z" />
<path fill="#cbcacb" opacity="1.00" d=" M 400.35 658.23 C 400.01 656.64 400.63 656.01 402.22 656.33 C 402.12 657.47 401.50 658.10 400.35 658.23 Z" />
<path fill="#cbcacb" opacity="1.00" d=" M 396.34 662.24 C 396.01 660.64 396.64 660.02 398.25 660.36 C 398.11 661.50 397.47 662.12 396.34 662.24 Z" />
<path fill="#cbcacb" opacity="1.00" d=" M 303.09 668.19 C 303.64 665.58 304.81 663.15 306.26 660.93 C 305.71 663.54 304.88 666.14 303.09 668.19 Z" />
<path fill="#cbcacb" opacity="1.00" d=" M 295.54 687.68 C 297.49 681.14 300.13 674.79 302.84 668.53 C 301.61 675.26 298.88 681.73 295.54 687.68 Z" />
<path fill="#cbcacb" opacity="1.00" d=" M 377.44 682.12 C 376.55 680.75 378.81 678.60 380.15 679.44 C 380.01 680.90 378.85 681.89 377.44 682.12 Z" />
<path fill="#cbcacb" opacity="1.00" d=" M 500.46 680.65 C 500.50 680.59 500.58 680.46 500.62 680.40 C 500.58 680.46 500.50 680.59 500.46 680.65 Z" />
<path fill="#cbcacb" opacity="1.00" d=" M 364.93 695.03 C 367.86 690.93 371.32 687.20 375.19 683.98 C 372.56 688.32 368.94 691.97 364.93 695.03 Z" />
<path fill="#cbcacb" opacity="1.00" d=" M 496.46 688.98 C 495.72 687.79 496.81 684.95 498.38 685.43 C 498.54 686.87 497.93 688.47 496.46 688.98 Z" />
<path fill="#cbcacb" opacity="1.00" d=" M 293.87 691.84 C 294.25 690.82 294.69 689.82 295.19 688.86 C 294.73 691.65 294.17 694.44 293.22 697.12 C 284.98 721.17 280.16 746.18 273.72 770.72 C 271.65 777.53 270.90 784.71 268.15 791.31 C 270.94 777.38 274.77 763.67 278.01 749.84 C 282.55 730.32 287.37 710.82 293.87 691.84 Z" />
<path fill="#cbcacb" opacity="1.00" d=" M 361.39 699.25 C 361.04 697.65 361.66 697.03 363.24 697.37 C 363.15 698.51 362.54 699.13 361.39 699.25 Z" />
<path fill="#cbcacb" opacity="1.00" d=" M 356.61 704.27 C 355.95 702.96 357.98 700.87 359.29 701.51 C 359.14 702.91 358.22 704.44 356.61 704.27 Z" />
<path fill="#cbcacb" opacity="1.00" d=" M 348.40 713.25 C 348.10 711.66 348.71 711.05 350.25 711.42 C 350.16 712.64 349.54 713.25 348.40 713.25 Z" />
<path fill="#cbcacb" opacity="1.00" d=" M 345.48 716.29 C 345.17 714.77 345.77 714.17 347.28 714.49 C 347.33 715.74 346.73 716.33 345.48 716.29 Z" />
<path fill="#cbcacb" opacity="1.00" d=" M 480.55 718.99 C 480.13 717.45 481.63 714.50 483.29 714.51 C 483.42 716.43 482.53 718.44 480.55 718.99 Z" />
<path fill="#cbcacb" opacity="1.00" d=" M 339.98 722.04 C 340.81 719.92 342.37 718.23 344.24 716.98 C 343.29 719.01 341.92 720.85 339.98 722.04 Z" />
<path fill="#cbcacb" opacity="1.00" d=" M 332.00 731.10 C 333.44 728.19 335.69 725.80 338.22 723.82 C 336.75 726.70 334.75 729.33 332.00 731.10 Z" />
<path fill="#cbcacb" opacity="1.00" d=" M 319.94 744.10 C 322.91 739.99 326.35 736.16 330.25 732.92 C 327.74 737.40 323.89 740.91 319.94 744.10 Z" />
<path fill="#cbcacb" opacity="1.00" d=" M 461.97 746.01 C 464.68 741.39 468.08 737.13 471.39 732.90 C 469.38 737.96 465.88 742.29 461.97 746.01 Z" />
<path fill="#cbcacb" opacity="1.00" d=" M 307.45 758.29 C 307.14 756.72 307.75 756.10 309.30 756.44 C 309.22 757.66 308.61 758.28 307.45 758.29 Z" />
<path fill="#cbcacb" opacity="1.00" d=" M 299.45 767.24 C 299.10 765.68 299.71 765.07 301.27 765.40 C 301.20 766.64 300.60 767.25 299.45 767.24 Z" />
<path fill="#cbcacb" opacity="1.00" d=" M 294.04 773.15 C 295.10 770.78 296.75 768.70 298.91 767.24 C 297.95 769.69 296.17 771.65 294.04 773.15 Z" />
</g>
</svg>
